<?xml version="1.0" encoding="UTF-8"?>
<svg id="Layer_2" data-name="Layer 2" xmlns="http://www.w3.org/2000/svg" viewBox="0 0 389.41 93.87">
  <defs>
    <style>
      .cls-1 {
        fill: #fff;
        stroke-width: 0px;
      }
    </style>
  </defs>
  <g id="Layer_1-2" data-name="Layer 1">
    <g>
      <polygon class="cls-1" points="18.62 93.75 111.15 93.75 111.15 74.62 0 74.62 18.62 93.75"/>
      <g>
        <rect class="cls-1" x="123.87" y=".25" width="75.03" height="19.13"/>
        <rect class="cls-1" x="123.87" y="37.43" width="75.03" height="19.13"/>
        <polygon class="cls-1" points="0 .25 0 19.38 92.02 19.38 92.02 29.73 84.08 37.67 18.57 37.67 18.57 37.86 18.38 37.67 8.91 47.14 22.43 60.67 26.3 56.8 92.02 56.8 111.15 37.67 111.15 19.38 111.15 .25 92.02 .25 0 .25"/>
        <polygon class="cls-1" points="274.61 56.8 293.74 37.67 293.74 19.38 293.74 .25 274.61 .25 211.65 .25 211.65 19.38 274.61 19.38 274.61 29.73 266.67 37.67 211.65 37.67 211.65 56.8 231.84 56.8 268.9 93.87 295.85 93.77 258.89 56.8 274.61 56.8"/>
        <rect class="cls-1" x="123.87" y="74.62" width="75.03" height="19.13"/>
        <polygon class="cls-1" points="370.28 0 370.28 74.62 335.44 74.62 326.09 65.27 326.09 0 306.96 0 306.96 74.62 326.09 93.75 389.41 93.75 389.41 82.09 389.41 74.62 389.41 0 370.28 0"/>
      </g>
    </g>
  </g>
</svg>